<?xml version="1.0" standalone="no"?>
<!DOCTYPE svg PUBLIC "-//W3C//DTD SVG 20010904//EN"
 "http://www.w3.org/TR/2001/REC-SVG-20010904/DTD/svg10.dtd">
<svg version="1.0" xmlns="http://www.w3.org/2000/svg"
 width="700.000000pt" height="700.000000pt" viewBox="0 0 700.000000 700.000000"
 preserveAspectRatio="xMidYMid meet">
<metadata>
Created by potrace 1.14, written by Peter Selinger 2001-2017
</metadata>
<g transform="translate(0.000000,700.000000) scale(0.100000,-0.100000)"
fill="#000000" stroke="none">
<path d="M560 3500 l0 -3500 1913 0 c1203 0 1966 4 2057 10 626 45 1092 224
1413 545 316 316 474 739 494 1315 28 859 -297 1428 -967 1694 -96 38 -249 82
-382 111 -26 5 -28 9 -28 50 0 41 2 45 28 50 208 45 467 158 613 269 202 153
352 370 433 623 126 401 109 968 -41 1348 -190 483 -607 797 -1221 920 -310
62 -192 58 -2344 62 l-1968 4 0 -3501z m3485 2487 c497 -102 725 -388 725
-907 0 -545 -250 -845 -771 -927 -103 -16 -202 -18 -1049 -18 l-935 0 -3 938
-2 938 977 -4 c857 -3 988 -6 1058 -20z m10 -2782 c459 -69 727 -303 825 -718
75 -317 37 -745 -86 -989 -113 -224 -319 -383 -584 -451 -194 -51 -227 -52
-1245 -52 l-950 0 -3 1113 -2 1112 972 0 c815 0 989 -3 1073 -15z"/>
</g>
</svg>
