<svg width="1114" height="1115" viewBox="0 0 1114 1115" fill="none" xmlns="http://www.w3.org/2000/svg">
<g filter="url(#filter0_f_6621_2)">
<path d="M514.509 869.493C503.019 873.234 494.045 873.397 487.017 870.72C480.003 868.048 474.794 862.494 470.931 854.518C467.062 846.53 464.57 836.163 462.979 823.976C461.39 811.795 460.707 797.841 460.433 782.702C460.211 770.483 460.256 757.476 460.303 744.016C460.37 724.789 460.44 704.64 459.74 684.548C470.706 662.085 480.653 638.144 489.824 616.071C490.59 614.229 491.35 612.4 492.105 610.586C498.81 594.468 505.098 579.534 511.075 567.119C517.06 554.687 522.701 544.852 528.096 538.886C530.793 535.903 533.376 533.947 535.852 533.084C538.288 532.235 540.66 532.428 543.043 533.833C545.464 535.261 547.934 537.963 550.44 542.211C552.941 546.451 555.445 552.174 557.956 559.566C578.1 618.851 590.262 688.923 585.833 747.906C581.4 806.935 560.389 854.554 514.509 869.493ZM458.167 682.686C458.186 683.196 458.204 683.706 458.222 684.216C453.915 693.027 449.451 701.605 444.815 709.747C436.089 725.076 426.769 738.837 416.759 749.697C406.747 760.56 396.077 768.485 384.659 772.202C378.952 774.061 374.088 774.481 369.98 773.72C365.883 772.96 362.491 771.016 359.723 768.064C354.157 762.127 351.079 752.068 350.099 739.312C348.142 713.838 354.595 678.202 365.222 645.268C375.855 612.316 390.608 582.252 405.134 567.838C412.413 560.615 419.419 557.525 425.717 559.559C432.068 561.61 438.114 568.985 443.144 583.789C453.192 613.361 456.87 647.914 458.167 682.686Z" stroke="#EA8305" stroke-width="1.5"/>
<path d="M292.203 558.891C286.763 530.179 286.665 509.383 291.132 494.141C295.588 478.937 304.598 469.211 317.516 462.653C329.181 456.731 344.039 453.387 361.642 450.97C369.972 475.724 387.872 501.05 409.575 525.58C433.81 552.972 462.876 579.465 488.869 603.158C490.419 604.572 491.959 605.975 493.486 607.368C507.056 619.747 519.627 631.304 530.044 641.772C540.47 652.249 548.695 661.592 553.605 669.542C558.537 677.529 559.976 683.866 557.331 688.535C554.659 693.249 547.647 696.606 534.678 698.066C482.791 703.908 427.562 697.714 382.62 675.76C337.711 653.821 303.051 616.141 292.203 558.891ZM362.662 449.323C361.361 445.296 360.32 441.288 359.566 437.306C356.857 423.013 357.674 412.275 360.899 404.417C364.116 396.576 369.753 391.548 376.814 388.699C390.992 382.979 410.975 386.034 428.548 393.1C437.315 396.626 445.432 401.13 451.863 405.983C458.311 410.849 462.991 416.009 464.997 420.825C465.994 423.221 466.322 425.51 465.903 427.639C465.485 429.765 464.311 431.791 462.199 433.639C457.948 437.358 449.946 440.311 436.995 441.769C424.447 443.182 412.488 444.274 401.19 445.306L400.004 445.415C388.361 446.479 377.424 447.488 367.294 448.73C365.731 448.922 364.187 449.119 362.662 449.323Z" stroke="#EA8305" stroke-width="1.5"/>
<path d="M594.711 680.329C593.134 687.033 591.795 692.245 590.645 696.118C589.489 700.012 588.541 702.493 587.758 703.785C587.354 704.454 587.068 704.674 586.929 704.718C586.919 704.721 586.912 704.723 586.907 704.724C586.89 704.712 586.845 704.673 586.776 704.575C586.574 704.291 586.332 703.738 586.076 702.835C585.826 701.955 585.587 700.824 585.354 699.45C584.447 694.096 583.692 685.386 582.734 674.337L582.648 673.34C581.65 661.84 580.431 647.949 578.603 632.86C574.948 602.694 568.851 567.682 557.193 537.342C545.538 507.007 528.261 481.193 502.182 469.681C498.935 468.248 495.86 467.088 492.95 466.183C485.839 448.11 476.772 432.432 469.459 420.185C468.729 418.961 468.016 417.773 467.326 416.621C463.891 410.891 460.991 406.055 459.044 402.191C457.874 399.87 457.08 397.96 456.713 396.457C456.346 394.948 456.445 394.004 456.858 393.423C457.28 392.83 458.168 392.421 459.856 392.431C461.529 392.442 463.856 392.866 466.962 393.761C473.168 395.55 482.314 399.171 495.198 404.858C546.485 427.497 577.634 469.545 592.841 519.332C608.06 569.156 607.312 626.746 594.711 680.329ZM491.988 467.457C501.503 491.954 507.278 520.743 500.093 551.298C496.947 564.676 493.027 572.599 488.857 576.434C486.783 578.341 484.664 579.222 482.558 579.289C480.452 579.356 478.295 578.612 476.123 577.151C471.751 574.211 467.383 568.406 463.502 560.79C459.632 553.198 456.298 543.903 453.956 534.112C449.264 514.492 448.607 493.088 455.412 479.452C458.803 472.658 464.04 467.796 471.573 466.006C477.059 464.702 483.8 465.018 491.988 467.457Z" stroke="#EA8305" stroke-width="1.5"/>
</g>
<path d="M514.941 869.841C503.452 873.582 494.471 873.74 487.431 871.054C480.404 868.372 475.178 862.804 471.295 854.811C467.406 846.807 464.89 836.421 463.275 824.213C461.66 812.011 460.95 798.036 460.649 782.875C460.404 770.566 460.429 757.458 460.455 743.896C460.492 724.658 460.531 704.506 459.804 684.42C470.744 661.993 480.671 638.102 489.825 616.071C490.591 614.229 491.35 612.4 492.105 610.586C498.811 594.468 505.099 579.534 511.076 567.119C517.061 554.688 522.702 544.852 528.096 538.887C530.793 535.904 533.377 533.947 535.853 533.084C538.289 532.235 540.661 532.428 543.044 533.834C545.464 535.261 547.935 537.964 550.441 542.212C552.942 546.452 555.445 552.174 557.957 559.567C578.101 618.852 590.37 689.012 586.049 748.082C581.723 807.199 560.82 854.903 514.941 869.841ZM458.235 682.742C458.252 683.191 458.269 683.64 458.286 684.089C453.958 692.945 449.474 701.566 444.816 709.748C436.089 725.077 426.77 738.837 416.76 749.697C406.747 760.56 396.078 768.485 384.659 772.203C378.952 774.061 374.089 774.482 369.98 773.72C365.883 772.96 362.492 771.016 359.724 768.064C354.158 762.127 351.079 752.068 350.099 739.312C348.143 713.838 354.596 678.203 365.223 645.269C375.856 612.317 390.609 582.253 405.134 567.839C412.414 560.615 419.42 557.526 425.717 559.56C432.069 561.611 438.115 568.985 443.145 583.789C453.193 613.362 456.898 647.937 458.235 682.742Z" stroke="#CC7408" stroke-width="1.5"/>
<path d="M291.76 559.317C286.32 530.606 286.25 509.783 290.758 494.501C295.255 479.257 304.322 469.478 317.296 462.866C329.033 456.884 343.977 453.491 361.665 451.035C370.004 475.768 387.891 501.071 409.576 525.581C433.811 552.972 462.876 579.466 488.869 603.159C490.42 604.572 491.959 605.975 493.486 607.368C507.056 619.748 519.627 631.305 530.045 641.773C540.47 652.249 548.696 661.592 553.605 669.543C558.537 677.53 559.977 683.866 557.331 688.535C554.659 693.25 547.648 696.607 534.678 698.067C482.791 703.909 427.45 697.821 382.396 675.972C337.377 654.139 302.608 616.565 291.76 559.317ZM362.683 449.386C361.372 445.337 360.325 441.309 359.566 437.306C356.858 423.014 357.675 412.276 360.899 404.418C364.117 396.576 369.754 391.548 376.814 388.7C390.993 382.979 410.975 386.035 428.548 393.101C437.316 396.626 445.432 401.131 451.863 405.984C458.312 410.849 462.992 416.01 464.997 420.826C465.995 423.222 466.323 425.511 465.904 427.64C465.486 429.766 464.311 431.792 462.199 433.64C457.949 437.358 449.946 440.311 436.995 441.769C424.677 443.156 412.92 444.24 401.794 445.267C401.189 445.322 400.586 445.378 399.984 445.433C388.329 446.509 377.375 447.535 367.224 448.797C365.692 448.988 364.179 449.183 362.683 449.386Z" stroke="#CC7408" stroke-width="1.5"/>
<path d="M594.711 680.329C593.134 687.033 591.795 692.245 590.645 696.118C589.489 700.012 588.54 702.493 587.758 703.785C587.353 704.454 587.068 704.674 586.929 704.718C586.919 704.721 586.912 704.723 586.907 704.724C586.89 704.712 586.845 704.673 586.776 704.575C586.574 704.291 586.331 703.738 586.075 702.835C585.826 701.955 585.587 700.824 585.354 699.45C584.446 694.096 583.691 685.386 582.734 674.337L582.647 673.34C581.65 661.84 580.431 647.949 578.603 632.86C574.947 602.694 568.851 567.682 557.193 537.342C545.537 507.007 528.261 481.193 502.181 469.681C498.935 468.248 495.86 467.088 492.95 466.183C485.839 448.11 476.771 432.432 469.459 420.185C468.729 418.961 468.016 417.773 467.326 416.621C463.89 410.891 460.991 406.055 459.044 402.191C457.874 399.87 457.079 397.96 456.713 396.457C456.345 394.948 456.444 394.004 456.857 393.423C457.28 392.83 458.167 392.421 459.856 392.431C461.529 392.442 463.856 392.866 466.962 393.761C473.168 395.55 482.313 399.171 495.198 404.858C546.485 427.497 577.634 469.545 592.841 519.332C608.059 569.156 607.312 626.746 594.711 680.329ZM491.988 467.457C501.503 491.954 507.278 520.743 500.093 551.298C496.947 564.676 493.027 572.599 488.857 576.434C486.782 578.341 484.664 579.222 482.557 579.289C480.452 579.356 478.295 578.612 476.123 577.151C471.751 574.211 467.382 568.406 463.501 560.79C459.632 553.198 456.298 543.903 453.956 534.112C449.264 514.492 448.607 493.088 455.412 479.452C458.802 472.658 464.04 467.796 471.573 466.006C477.059 464.702 483.8 465.018 491.988 467.457Z" stroke="#CC7409" stroke-width="1.5"/>
<g filter="url(#filter1_f_6621_2)">
<circle cx="557.046" cy="557.338" r="156.812" fill="#EA8305"/>
</g>
<g filter="url(#filter2_d_6621_2)">
<circle cx="504.812" cy="598.812" r="156.812" fill="#CC7408"/>
</g>
<defs>
<filter id="filter0_f_6621_2" x="283.179" y="380.97" width="325.745" height="496.318" filterUnits="userSpaceOnUse" color-interpolation-filters="sRGB">
<feFlood flood-opacity="0" result="BackgroundImageFix"/>
<feBlend mode="normal" in="SourceGraphic" in2="BackgroundImageFix" result="shape"/>
<feGaussianBlur stdDeviation="2" result="effect1_foregroundBlur_6621_2"/>
</filter>
<filter id="filter1_f_6621_2" x="0.234863" y="0.526123" width="1113.62" height="1113.62" filterUnits="userSpaceOnUse" color-interpolation-filters="sRGB">
<feFlood flood-opacity="0" result="BackgroundImageFix"/>
<feBlend mode="normal" in="SourceGraphic" in2="BackgroundImageFix" result="shape"/>
<feGaussianBlur stdDeviation="200" result="effect1_foregroundBlur_6621_2"/>
</filter>
<filter id="filter2_d_6621_2" x="318" y="416" width="373.623" height="373.623" filterUnits="userSpaceOnUse" color-interpolation-filters="sRGB">
<feFlood flood-opacity="0" result="BackgroundImageFix"/>
<feColorMatrix in="SourceAlpha" type="matrix" values="0 0 0 0 0 0 0 0 0 0 0 0 0 0 0 0 0 0 127 0" result="hardAlpha"/>
<feOffset dy="4"/>
<feGaussianBlur stdDeviation="15"/>
<feComposite in2="hardAlpha" operator="out"/>
<feColorMatrix type="matrix" values="0 0 0 0 0 0 0 0 0 0 0 0 0 0 0 0 0 0 1 0"/>
<feBlend mode="normal" in2="BackgroundImageFix" result="effect1_dropShadow_6621_2"/>
<feBlend mode="normal" in="SourceGraphic" in2="effect1_dropShadow_6621_2" result="shape"/>
</filter>
</defs>
</svg>
